<svg xmlns="http://www.w3.org/2000/svg" viewBox="0 0 64 64">
  <defs>
    <linearGradient id="bg" x1="8" y1="8" x2="56" y2="56" gradientUnits="userSpaceOnUse">
      <stop offset="0" stop-color="#0f766e" />
      <stop offset="1" stop-color="#1d4ed8" />
    </linearGradient>
  </defs>
  <rect x="4" y="4" width="56" height="56" rx="18" fill="url(#bg)" />
  <path d="M20 18h15.5c7 0 11.5 3.7 11.5 9.4 0 4.2-2.4 7.1-6.3 8.1 4.7.9 7.4 4 7.4 8.7 0 6.2-4.9 10-12.8 10H20V18zm13.8 14.3c3.2 0 5.2-1.3 5.2-3.7 0-2.4-2-3.7-5.2-3.7h-6.1v7.4h6.1zm1.1 14.8c3.5 0 5.7-1.5 5.7-4.2 0-2.7-2.2-4.1-5.7-4.1h-7.2v8.3h7.2z" fill="#fff"/>
  <circle cx="48" cy="48" r="7" fill="#86efac" fill-opacity=".22" />
</svg>
